<svg xmlns="http://www.w3.org/2000/svg" viewBox="0 0 64 64">
  <g opacity=".4">
    <path fill="currentColor" d="M15,14c-1.1,0-2,.9-2,2v32c0,1.1.9,2,2,2s1.2-.3,1.6-.8l13-16c.6-.7.6-1.8,0-2.5l-13-16c-.4-.5-1-.8-1.6-.8Z"/>
  </g>
  <path fill="currentColor" d="M27,14c-1.1,0-2,.9-2,2v32c0,1.1.9,2,2,2s1.2-.3,1.6-.8l13-16c.6-.7.6-1.8,0-2.5l-13-16c-.4-.5-1-.8-1.6-.8Z"/>
  <path fill="var(--icon-color-accent, #6eb52c)" d="M39,14c-1.1,0-2,.9-2,2v32c0,1.1.9,2,2,2s1.2-.3,1.6-.8l13-16c.6-.7.6-1.8,0-2.5l-13-16c-.4-.5-1-.8-1.6-.8Z"/>
</svg>
