<svg xmlns="http://www.w3.org/2000/svg" viewBox="0 0 64 64">
  <g opacity=".4">
    <path fill="currentColor" d="M10 14c-1.1 0-2 .9-2 2v32c0 1.1.9 2 2 2 .61 0 1.18-.28 1.56-.76l13-16a2 2 0 0 0 0-2.48l-13-16A2 2 0 0 0 10 14Z"/>
  </g>
  <path fill="currentColor" d="M22 14c-1.1 0-2 .9-2 2v32c0 1.1.9 2 2 2 .61 0 1.18-.28 1.56-.76l13-16a2 2 0 0 0 0-2.48l-13-16A2 2 0 0 0 22 14Z"/>
  <path fill="var(--icon-color-accent, #6eb52c)" d="M34 14c-1.1 0-2 .9-2 2v32c0 1.1.9 2 2 2 .61 0 1.18-.28 1.56-.76l13-16a2 2 0 0 0 0-2.48l-13-16A2 2 0 0 0 34 14Z"/>
</svg>
